<svg width="30" height="30" viewBox="0 0 30 30" fill="none" xmlns="http://www.w3.org/2000/svg">
<path d="M0 4H30V30H0V4Z" fill="#1AFF11"/>
<rect x="14" y="13" width="1" height="1" fill="#111111"/>
<rect x="15" y="13" width="1" height="1" fill="#AA11AA"/>
<rect x="16" y="14" width="1" height="1" fill="#111111"/>
<rect x="13" y="15" width="1" height="1" fill="#111111"/>
<rect x="14" y="18" width="1" height="1" fill="#111111"/>
<rect x="16" y="15" width="1" height="1" fill="#111111"/>
<rect x="13" y="16" width="1" height="1" fill="#111111"/>
<rect x="14" y="19" width="1" height="1" fill="#111111"/>
<rect x="15" y="15" width="1" height="1" fill="#111111"/>
<rect x="12" y="16" width="1" height="1" fill="#111111"/>
<rect x="13" y="19" width="1" height="1" fill="#111111"/>
<rect x="15" y="14" width="1" height="1" fill="#1111FF"/>
<rect x="18" y="15" width="1" height="1" fill="#1111FF"/>
<rect x="16" y="17" width="1" height="1" fill="#1111FF"/>
<rect x="12" y="15" width="1" height="1" fill="#1111FF"/>
<rect x="13" y="18" width="1" height="1" fill="#1111FF"/>
<rect x="15" y="20" width="1" height="1" fill="#1111FF"/>
<rect opacity="0.3" x="14" y="18" width="1" height="1" fill="#111111"/>
<rect x="17" y="17" width="1" height="1" fill="#111111"/>
<rect x="18" y="16" width="1" height="1" fill="#111111"/>
<rect opacity="0.3" x="14" y="19" width="1" height="1" fill="#111111"/>
<rect x="17" y="18" width="1" height="1" fill="#111111"/>
<rect x="15" y="21" width="1" height="1" fill="#111111"/>
<rect opacity="0.3" x="13" y="19" width="1" height="1" fill="#111111"/>
<rect x="16" y="18" width="1" height="1" fill="#111111"/>
<rect x="14" y="21" width="1" height="1" fill="#111111"/>
<rect x="14" y="21" width="1" height="1" fill="#111111"/>
<rect x="15" y="21" width="1" height="1" fill="#111111"/>
<rect x="16" y="13" width="1" height="1" fill="#AA11AA"/>
<rect x="17" y="14" width="1" height="1" fill="#AA11AA"/>
<rect x="17" y="15" width="1" height="1" fill="#AA11AA"/>
<rect x="17" y="16" width="1" height="1" fill="#AA11AA"/>
<rect x="16" y="16" width="1" height="1" fill="#AA11AA"/>
<rect x="15" y="16" width="1" height="1" fill="#AA11AA"/>
<rect x="14" y="16" width="1" height="1" fill="#AA11AA"/>
<rect x="14" y="15" width="1" height="1" fill="#AA11AA"/>
<rect x="14" y="14" width="1" height="1" fill="#AA11AA"/>
<rect x="13" y="14" width="1" height="1" fill="#AA11AA"/>
<rect x="12" y="14" width="1" height="1" fill="#AA11AA"/>
<rect x="11" y="15" width="1" height="1" fill="#AA11AA"/>
<rect x="11" y="16" width="1" height="1" fill="#AA11AA"/>
<rect x="10" y="17" width="1" height="1" fill="#111111"/>
<rect x="18" y="14" width="1" height="1" fill="#AA11AA"/>
<rect x="19" y="15" width="1" height="1" fill="#AA11AA"/>
<rect x="18" y="17" width="1" height="1" fill="#AA11AA"/>
<rect x="15" y="17" width="1" height="1" fill="#AA11AA"/>
<rect x="14" y="17" width="1" height="1" fill="#AA11AA"/>
<rect x="13" y="17" width="1" height="1" fill="#AA11AA"/>
<rect x="12" y="17" width="1" height="1" fill="#AA11AA"/>
<rect x="12" y="18" width="1" height="1" fill="#AA11AA"/>
<rect x="12" y="19" width="1" height="1" fill="#AA11AA"/>
<rect x="12" y="20" width="1" height="1" fill="#AA11AA"/>
<rect x="13" y="20" width="1" height="1" fill="#AA11AA"/>
<rect x="13" y="21" width="1" height="1" fill="#AA11AA"/>
<rect x="14" y="22" width="1" height="1" fill="#AA11AA"/>
<rect x="15" y="22" width="1" height="1" fill="#AA11AA"/>
<rect x="16" y="21" width="1" height="1" fill="#AA11AA"/>
<rect x="16" y="20" width="1" height="1" fill="#AA11AA"/>
<rect x="14" y="20" width="1" height="1" fill="#AA11AA"/>
<rect x="16" y="19" width="1" height="1" fill="#AA11AA"/>
<rect x="15" y="19" width="1" height="1" fill="#AA11AA"/>
<rect x="15" y="18" width="1" height="1" fill="#AA11AA"/>
<rect x="17" y="19" width="1" height="1" fill="#AA11AA"/>
<rect x="18" y="18" width="1" height="1" fill="#AA11AA"/>
<rect x="19" y="16" width="1" height="1" fill="#AA11AA"/>
<rect x="14" y="12" width="1" height="1" fill="#111111"/>
<rect x="13" y="11" width="1" height="1" fill="#111111"/>
<rect x="12" y="12" width="1" height="1" fill="#111111"/>
<rect x="15" y="11" width="1" height="1" fill="#111111"/>
<rect x="16" y="11" width="1" height="1" fill="#111111"/>
<rect x="17" y="11" width="1" height="1" fill="#111111"/>
<rect x="18" y="12" width="1" height="1" fill="#111111"/>
<path d="M0 3V4H30V3H29V2H28V1H27V0H3V1H2V2H1V3H0Z" fill="#1AAA11"/>
</svg>
