<svg width="30" height="30" viewBox="0 0 30 30" fill="none" xmlns="http://www.w3.org/2000/svg">
<mask id="mask0_2103_2138" style="mask-type:luminance" maskUnits="userSpaceOnUse" x="0" y="0" width="30" height="30">
<path d="M30 0H0V30H30V0Z" fill="white"/>
</mask>
<g mask="url(#mask0_2103_2138)">
<path d="M12.0998 21.0898L12.218 21.1617C12.7702 22.0833 13.3614 22.9019 14.4639 23.1829C15.205 23.3719 15.92 23.1604 16.554 22.7724C17.0973 22.4399 17.2865 22.0464 17.7216 21.718L17.8852 21.6827C17.634 22.9433 17.5941 24.256 18.3419 25.3627C19.1981 26.6298 20.7875 27.2809 22.2388 27.5505C24.398 27.9516 26.8009 27.6031 28.2328 29.6562C29.7776 31.8705 28.7384 34.5898 28.6188 37.0224C30.195 38.5818 31.4522 40.4185 31.4636 42.7209C31.4718 44.387 30.7924 46.0845 29.6777 47.3199C29.2735 47.8033 28.5954 48.4411 28.2715 48.9157C27.9764 49.3481 27.5965 51.7581 27.5018 52.4419H27.3878H23.776H23.3312H6.49739H6.17434H2.69637H2.60325C2.48547 51.8867 1.96592 49.2075 1.74509 48.8741C1.51254 48.5234 1.10003 48.2445 0.825077 47.9094C0.69468 47.7875 0.507959 47.6249 0.421273 47.469L0.252617 47.2936C-0.854773 46.0241 -1.49861 44.4002 -1.46768 42.7127C-1.42218 40.2348 -0.222407 38.5941 1.48577 36.9339C1.4751 36.3904 1.37564 35.8432 1.30018 35.3056C1.04265 33.473 0.736844 31.3982 1.82218 29.7608C3.2803 27.5606 5.53449 28.0014 7.78686 27.5508C9.25654 27.2567 10.9117 26.6487 11.7713 25.3364C12.6353 24.0174 12.4124 22.5449 12.0998 21.0898Z" fill="#E3E2D9"/>
<path d="M17.8857 21.6836C17.6344 22.9442 17.5945 24.2569 18.3423 25.3636C19.1985 26.6307 20.788 27.2818 22.2393 27.5513C24.3985 27.9525 26.8014 27.604 28.2333 29.6569C29.7779 31.8714 28.7389 34.5907 28.6192 37.0233C30.1954 38.5827 31.4525 40.4194 31.464 42.7218C31.4722 44.3876 30.7928 46.0854 29.678 47.3208L29.6051 47.2192C29.6739 47.1442 29.7393 47.0674 29.8031 46.988C30.934 45.5809 31.51 43.8348 31.3011 42.0295C30.9601 39.0808 28.7516 37.2899 26.6737 35.462C25.9689 34.8421 25.2917 34.1466 24.559 33.5656L24.5801 33.5073L25.5614 34.323C25.8747 33.9553 26.1595 33.4739 26.5262 33.1654C26.297 33.5961 25.9512 34.0104 25.6638 34.4056C26.601 35.2493 27.591 36.0459 28.4913 36.928C28.7003 35.1623 29.1829 33.2199 28.8357 31.4589C28.6143 30.3363 28.0495 29.3472 27.0822 28.7077C26.279 28.1765 25.3558 28.0003 24.4101 27.9354C24.1671 27.9187 23.9077 27.8898 23.6678 27.9378C23.6355 27.9139 23.594 27.8963 23.5583 27.8776C23.3432 27.8594 23.1278 27.8303 22.9138 27.8016C21.2717 27.582 19.3775 26.952 18.3426 25.5745C17.4614 24.4016 17.5309 23.1017 17.722 21.7188L17.8857 21.6836Z" fill="#111111"/>
<path d="M12.0998 21.0898L12.218 21.1617C12.5518 22.5193 12.7379 23.9995 11.9722 25.2519C11.1785 26.5505 9.68143 27.2388 8.25131 27.5719C7.63906 27.7113 7.01873 27.8131 6.39403 27.8766L6.26143 27.9104C4.8904 27.939 3.38644 28.1656 2.39756 29.2054C1.37995 30.2753 1.13926 31.6851 1.18688 33.1118C1.22815 34.3473 1.4506 35.5865 1.62341 36.8088C2.50045 35.9826 3.4356 35.22 4.31794 34.3988C3.98308 33.9731 3.72072 33.4979 3.39353 33.0685C3.7843 33.4268 4.05887 33.9061 4.42051 34.2951C4.75405 34.0282 5.07591 33.7077 5.42621 33.4672L5.4464 33.5287C4.87786 33.9228 4.16085 34.7076 3.61906 35.1945C1.56879 37.0367 -0.744318 38.7362 -1.26371 41.6343C-1.57838 43.364 -1.17669 45.1473 -0.15078 46.5752C0.00704655 46.7993 0.175211 47.0161 0.353061 47.2247L0.252617 47.2936C-0.854773 46.0241 -1.49861 44.4002 -1.46768 42.7127C-1.42218 40.2348 -0.222407 38.5941 1.48577 36.9339C1.4751 36.3904 1.37564 35.8432 1.30018 35.3056C1.04265 33.473 0.736844 31.3982 1.82218 29.7608C3.2803 27.5606 5.53449 28.0014 7.78686 27.5508C9.25654 27.2567 10.9117 26.6487 11.7713 25.3364C12.6353 24.0174 12.4124 22.5449 12.0998 21.0898Z" fill="#111111"/>
<path d="M6.25781 27.9088L6.39041 27.875C6.40937 27.886 6.42809 27.8975 6.4473 27.9079C6.79925 28.0989 7.43959 28.1204 7.84544 28.1828C8.96153 28.3575 10.0794 28.5206 11.1989 28.6719C11.9162 28.7637 12.662 28.8014 13.3677 28.9553C13.3863 28.9594 13.4051 28.9624 13.4236 28.9667C13.7659 29.0445 14.3546 29.7323 14.583 30.0133L14.5693 30.0414C14.1133 29.7953 13.9162 29.2639 13.4853 29.0851C12.9669 28.8699 12.2294 28.9066 11.6704 28.8412C10.4263 28.6842 9.18659 28.4945 7.95246 28.272C7.40906 28.1769 6.76588 28.1206 6.25781 27.9088Z" fill="#111111"/>
<path d="M23.556 27.875C23.5918 27.8937 23.6332 27.9113 23.6656 27.9352C22.384 28.2738 20.6192 28.5466 19.3011 28.7308C18.7441 28.8086 16.9284 28.9176 16.5717 29.0798C16.2346 29.2331 16.108 29.6031 15.8406 29.8346C15.7177 29.9412 15.6216 30.0112 15.4609 29.9963L15.5077 30.0314L15.4645 30.0141L15.4893 29.9582C16.0213 29.6887 16.0758 29.1898 16.5914 28.992C17.0911 28.8003 17.7696 28.8113 18.3007 28.7486C19.0227 28.6634 23.0635 28.1219 23.5047 27.9021C23.522 27.8935 23.5389 27.884 23.556 27.875Z" fill="#111111"/>
<path d="M-2.49392 15.2178C-2.07652 12.6998 -0.760263 10.2408 1.55651 9.00017C2.34654 8.57715 3.07063 8.52052 3.94596 8.66581C4.11284 9.01353 4.25437 9.27439 4.44826 9.60837C3.73628 9.69108 3.38408 10.2612 3.30676 10.9371L3.38847 11.0028C3.71334 9.25136 5.13254 9.44296 5.02918 10.7768C4.93681 10.7781 4.91027 10.7144 4.81836 10.6252L4.78335 10.6929C4.93875 10.8575 5.12238 11.0215 5.11628 11.2486C5.07679 11.3353 5.04433 11.408 5.00932 11.4972C5.11163 11.5882 5.11995 11.5417 5.22583 11.5973L5.33302 11.5875C6.0459 14.6967 7.43159 17.328 10.2054 19.0754C10.3201 19.1487 10.4368 19.2187 10.5555 19.2855L10.5151 19.3866C10.9306 19.6137 11.4057 19.8181 11.7939 20.0845C11.8935 20.4206 11.9962 20.7558 12.102 21.0901C12.4146 22.5451 12.6375 24.0176 11.7735 25.3367C10.914 26.6489 9.25875 27.257 7.78907 27.551C5.53669 28.0016 3.2825 27.5609 1.82438 29.761C0.739047 31.3984 1.04485 33.4732 1.30239 35.306C1.37784 35.8433 1.47731 36.3908 1.48797 36.934C-0.220202 38.5946 -1.41998 40.2352 -1.46548 42.7131C-1.49641 44.4006 -0.852565 46.0245 0.254826 47.2937L0.423476 47.4692C0.510162 47.625 0.696883 47.7876 0.827281 47.9098C1.10223 48.2447 1.51475 48.5236 1.7473 48.8745C1.96813 49.2076 2.48768 51.8868 2.60546 52.442H-19.3423H-19.4428H-20.2656C-19.8904 51.1152 -18.9265 50.0244 -17.7577 49.3143L-17.7766 49.2498C-17.2849 48.9844 -16.6123 48.8716 -16.075 48.6967C-16.0354 48.6838 -15.996 48.6709 -15.957 48.6563L-15.7286 48.743C-15.2018 48.4802 -14.5789 48.3484 -14.0141 48.1834C-12.1304 47.6326 -8.80316 46.9005 -7.37532 45.6287C-6.76849 45.0882 -6.30803 44.4024 -6.27086 43.5709C-6.11889 40.1693 -11.0611 37.6767 -13.7515 36.6466C-14.2678 36.4491 -14.7897 36.2666 -15.3164 36.0985C-15.7746 35.9573 -16.2795 35.8503 -16.71 35.6367C-17.3158 35.3362 -18.0701 34.6093 -18.5227 34.1162C-19.5023 33.0487 -20.1344 31.8747 -20.0573 30.3947C-19.9473 28.2835 -18.1731 26.2611 -16.4221 25.2184C-15.9431 24.9332 -15.4062 24.7349 -14.8879 24.5329C-14.5529 24.4023 -14.2018 24.2459 -13.8509 24.1663C-13.1736 24.013 -12.1353 24.0671 -11.3906 23.9948C-8.47562 23.7118 -5.32023 22.929 -3.08998 20.9189C-2.38175 20.2806 -1.62103 19.3896 -1.56641 18.3891C-1.58472 18.1434 -1.58692 17.8852 -1.56852 17.6395C-1.55363 17.0172 -2.22075 15.7716 -2.49392 15.2178Z" fill="#1111FF"/>
<path d="M3.37972 11.0044C3.70457 9.25296 5.12379 9.44456 5.02041 10.7784C4.92803 10.7797 4.90149 10.716 4.80959 10.6268L4.7746 10.6944C4.93 10.859 5.1136 11.0231 5.1075 11.2502C5.06804 11.3368 5.03555 11.4096 5.00054 11.4988C5.10288 11.5897 5.11117 11.5433 5.21708 11.5989L5.32427 11.5891C6.03712 14.6982 7.42281 17.3296 10.1966 19.0769C10.3113 19.1503 10.428 19.2202 10.5467 19.287L10.5063 19.3881C9.13773 18.8386 7.13004 16.5394 6.48 15.1875C6.19348 15.1241 5.93743 15.0602 5.67548 14.9274C4.35264 14.2568 3.04161 12.4669 3.29798 10.9386L3.37972 11.0044Z" fill="#E3E2D9"/>
<path d="M6.48 15.1864C6.19348 15.1229 5.93743 15.059 5.67548 14.9262C4.35264 14.2556 3.04161 12.4658 3.29798 10.9375L3.37972 11.0032C3.25495 12.7451 4.74033 14.7423 6.44672 15.0934C6.38778 14.9662 6.21068 14.5614 6.14831 14.4624C5.38662 14.1298 4.72454 13.7447 4.36348 12.9358C4.17446 12.5124 4.25904 12.1379 4.34116 11.7066C4.72193 12.042 5.15877 12.392 5.51327 12.7446C5.41834 12.4125 5.26377 11.9271 5.21708 11.5977L5.32427 11.5879C6.03712 14.6971 7.42281 17.3285 10.1966 19.0758C10.3113 19.1491 10.428 19.2191 10.5467 19.2859L10.5063 19.387C9.13773 18.8375 7.13004 16.5383 6.48 15.1864Z" fill="#111111"/>
<path d="M4.38758 11.8867C4.5568 12.0094 4.65602 12.0936 4.8181 12.2269C4.85756 12.2369 4.86034 12.2403 4.87546 12.2769C4.97633 12.37 5.07969 12.4602 5.18551 12.5477C5.25266 12.5762 5.24703 12.5731 5.28342 12.6379C5.68757 13.0311 5.86004 13.7431 6.08208 14.3268L6.01136 14.3008C5.53478 14.1291 5.11265 13.8334 4.78853 13.4441C4.30725 12.8631 4.33385 12.5495 4.38758 11.8867Z" fill="#E3E2D9"/>
<path d="M3.74219 11.2926C3.83799 10.8878 3.9927 10.2657 4.52145 10.3915L4.42688 10.4372C3.93607 10.4513 3.81569 11.2858 3.79085 11.653C3.76284 11.5183 3.75716 11.4282 3.74219 11.2926Z" fill="#302F31"/>
<path d="M4.52426 10.3906C4.61461 10.4541 4.74478 10.5402 4.81576 10.6227L4.78075 10.6903C4.66605 10.6152 4.54031 10.5192 4.42969 10.4363L4.52426 10.3906Z" fill="#807E7E"/>
<path d="M3.79044 11.6533C3.65922 11.6266 3.72645 11.3915 3.74175 11.293C3.75672 11.4285 3.76243 11.5187 3.79044 11.6533Z" fill="#807E7E"/>
<path d="M26.3796 8.67446C27.0286 8.64293 27.5872 8.59752 28.2113 8.82862C30.4247 9.64825 31.9309 12.1523 32.5145 14.3319C32.5819 14.6048 32.6466 14.8784 32.7078 15.1527C32.0733 16.4654 31.3092 17.5342 31.8401 19.0461C32.3935 20.6229 34.226 21.8002 35.6616 22.4783C37.5626 23.3759 39.5639 23.8337 41.6554 23.99C42.1672 24.0282 43.4698 24.0265 43.8708 24.1138C44.2491 24.1961 44.6276 24.3671 44.9873 24.5077C45.5006 24.708 46.0116 24.9125 46.4906 25.188C47.9408 26.0224 49.3426 27.4417 49.9195 29.0364C50.3246 30.1568 50.2977 31.515 49.7856 32.5969C49.2286 33.7738 47.7576 35.3224 46.514 35.756C43.5758 36.7808 40.9505 37.607 38.5324 39.6871C37.8389 40.2839 37.1958 40.9427 36.791 41.7736C36.4227 42.5289 36.2794 43.4517 36.5598 44.2597C36.9292 45.3238 37.9095 46.0442 38.8892 46.5074C42.0333 47.9933 45.8413 47.9743 48.4971 50.4903C48.8777 50.8509 49.2442 51.2344 49.4205 51.7389C49.5026 51.9736 49.5087 52.1974 49.5134 52.4423H27.4987C27.5934 51.7586 27.9733 49.3486 28.2684 48.9162C28.5923 48.4416 29.2704 47.8038 29.6744 47.3204C30.7892 46.0849 31.4686 44.3875 31.4604 42.7214C31.449 40.4192 30.1918 38.5826 28.6156 37.0228C28.7353 34.5903 29.7743 31.8713 28.2297 29.6567C26.7978 27.6036 24.3949 27.9521 22.2357 27.551C20.7844 27.2814 19.1949 26.6303 18.3387 25.3632C17.5909 24.2566 17.6309 22.9438 17.8821 21.6832C18.0172 21.1132 18.1578 20.5485 18.3673 20.0004C18.825 19.7786 19.2822 19.5607 19.721 19.3029C19.9763 19.1908 20.3984 18.9067 20.6327 18.7422C22.0878 17.7205 22.7843 16.6562 23.6711 15.2027C25.2258 14.8004 26.4369 13.4451 26.7642 11.8621C26.9366 11.0281 26.6757 9.69668 25.6492 9.57419C25.8375 9.18536 25.9386 8.78019 26.3796 8.67446Z" fill="#1111FF"/>
<path d="M14.9994 0.122721L15.0573 0.121094C15.4673 2.03316 15.8072 2.69296 17.0325 4.19519C17.0862 4.22654 17.1394 4.25267 17.1946 4.281C17.2573 4.31868 17.6516 4.72005 17.75 4.81113L17.7272 4.88739C17.766 4.92167 17.7995 4.95471 17.8365 4.99069C18.5597 5.62304 19.3838 5.78396 20.127 6.24205C20.1772 6.22772 20.2087 6.21773 20.2577 6.19998L20.301 6.20748C20.6389 6.26323 21.0045 6.25834 21.33 6.32021C22.668 6.57416 23.8387 7.81049 24.3146 9.04696L24.8562 8.79961C24.7605 8.86872 24.4077 9.11616 24.3424 9.18395L24.3069 9.23036C24.4663 9.62308 24.4068 9.74355 24.4637 10.1254C24.4929 10.1179 24.5049 10.1065 24.5248 10.1183C24.7682 10.1022 24.8428 10.0516 25.0658 9.9547C25.089 9.899 25.1198 9.87012 25.1587 9.82014L25.2165 9.84805L25.3219 9.91781C25.251 10.009 25.1829 10.0694 25.1798 10.18C25.0984 10.2064 25.0778 10.2057 25.0305 10.2778C25.0353 10.7101 24.9292 11.0119 24.8709 11.4046C24.9099 11.415 24.9583 11.4211 24.998 11.4274L25.1396 11.4856L25.1617 11.5418C25.0527 11.6385 25.0056 11.6282 24.919 11.6896L24.7994 11.6608C23.9043 15.0084 22.7876 17.3529 19.6809 19.2152L19.7243 19.3037C19.2855 19.5616 18.8283 19.7795 18.3705 20.0012C18.1611 20.5494 18.0205 21.1141 17.8854 21.6841L17.7217 21.7193C17.2866 22.0478 17.0974 22.4412 16.5541 22.7737C15.9202 23.1618 15.2052 23.3732 14.4641 23.1843C13.3615 22.9033 12.7704 22.0846 12.2182 21.1631L12.0999 21.0912C11.9941 20.7569 11.8914 20.4217 11.7918 20.0856C11.4037 19.8192 10.9286 19.6148 10.513 19.3877L10.5534 19.2866C10.4347 19.2198 10.318 19.1498 10.2033 19.0765C7.42951 17.3292 6.04383 14.6978 5.33095 11.5886L5.22375 11.5984C5.11787 11.5428 5.10955 11.5893 5.00725 11.4984C5.04226 11.4092 5.07472 11.3364 5.11421 11.2497C5.1203 11.0226 4.93667 10.8586 4.78128 10.694L4.81629 10.6264C4.90819 10.7155 4.93471 10.7792 5.02711 10.7779C5.13047 9.44411 3.71127 9.25248 3.3864 11.0039L3.30469 10.9382C3.382 10.2623 3.73421 9.6922 4.44618 9.60949L4.53466 9.5146C4.65756 9.67022 4.79871 9.86499 4.97282 9.9612L5.07495 9.93108L5.11134 9.98505C5.17761 10.0905 5.22041 10.1119 5.34032 10.126C5.37287 10.1333 5.40551 10.1406 5.43806 10.1478C5.50904 9.69105 5.60771 9.60885 5.74567 9.20519C5.70984 9.16336 5.70302 9.16011 5.68104 9.11036L5.64229 9.09483L5.70952 9.01383C5.78206 8.96338 5.78596 8.96525 5.83649 8.89998L5.88999 8.94366C6.13726 8.49559 6.32033 8.14778 6.66422 7.75872C8.03013 6.2134 8.84505 6.17215 10.8121 6.47411C11.1162 6.52084 11.79 6.71156 12.0663 6.69055C11.7906 6.43163 10.5207 6.30873 10.0736 6.24428C10.3245 6.17581 10.5596 6.08903 10.8066 6.01131C12.7219 5.40864 14.1857 3.55901 14.721 1.67282C14.861 1.17981 14.9264 0.634539 14.9994 0.122721Z" fill="#E3E2D9"/>
<path d="M20.2559 6.19922L20.2992 6.20672C20.6371 6.26247 21.0026 6.25761 21.3282 6.31945C22.6662 6.5734 23.8369 7.80973 24.3128 9.04623L24.8544 8.79885C24.7587 8.86796 24.4059 9.1154 24.3406 9.18319L24.305 9.2296C24.4645 9.62232 24.405 9.74279 24.4619 10.1246C24.4911 10.1171 24.5031 10.1058 24.523 10.1176C24.7664 10.1014 24.841 10.0508 25.064 9.95394C25.0872 9.89827 25.1179 9.86938 25.1569 9.8194L25.2147 9.84732L25.3201 9.91708C25.2492 10.0082 25.1811 10.0686 25.1779 10.1793C25.0966 10.2056 25.076 10.205 25.0287 10.277C25.0335 10.7093 24.9274 11.0112 24.8691 11.4038C24.9081 11.4143 24.9565 11.4204 24.9962 11.4266L25.1378 11.4848L25.1599 11.5411C25.0509 11.6378 25.0038 11.6274 24.9172 11.6888L24.7976 11.6601C24.5898 11.6204 24.5068 11.6197 24.2935 11.6179C23.9793 12.2542 23.64 12.921 23.343 13.5638L23.2335 13.5366C23.4234 12.9441 23.6406 12.2718 23.7387 11.6596C23.5933 11.3259 23.4111 11.0095 23.1952 10.7164C22.6583 9.99773 22.0208 9.56382 21.1318 9.42926C21.1727 9.45686 21.2128 9.48542 21.2522 9.51498C22.6478 10.5685 22.4497 13.326 21.4552 14.5983C19.9095 16.5757 18.1961 15.057 18.0404 13.0909C17.9364 11.7775 18.2052 10.7607 19.053 9.7437C18.4075 10.1279 17.9439 10.5319 17.4062 11.0388C17.9044 10.2236 18.6864 9.30173 19.5565 8.8454C20.056 8.58349 20.7356 8.67984 21.0115 8.33555C21.0126 8.30625 21.0219 8.27979 21.0288 8.25032C21.1655 8.09836 21.2609 7.86768 21.3534 7.67918C21.3182 7.88013 21.2607 8.09054 21.3029 8.28363C21.3457 8.31861 21.3693 8.3419 21.4172 8.36924L21.3821 8.41002C21.2284 8.39528 21.2932 8.37504 21.1776 8.45862L21.1772 8.53017C21.3406 8.64574 21.8515 8.76718 22.0679 8.8285C22.769 8.61196 22.8036 8.38163 23.3679 8.11219C23.0906 8.51528 22.9374 8.75889 22.5847 9.09873C23.349 9.38124 23.5045 9.3307 24.2521 9.06697C23.1097 6.8671 21.5453 6.01219 19.0671 6.49298C18.8548 6.53417 18.2366 6.77754 18.0844 6.74558L18.0781 6.67775C18.3281 6.40687 19.7016 6.28201 20.1252 6.24132C20.1754 6.22699 20.2069 6.21697 20.2559 6.19922Z" fill="#111111"/>
<path d="M25.0279 10.2773C25.0327 10.7096 24.9267 11.0115 24.8684 11.4042C24.354 11.4629 24.2483 11.2088 24.0234 10.7864C24.4628 10.6956 24.6811 10.6562 25.0279 10.2773Z" fill="#E3E2D9"/>
<path d="M24.3041 9.23047C24.4636 9.62319 24.4041 9.74366 24.461 10.1255C24.0648 10.2066 23.6732 10.0342 23.4219 9.7269C23.8083 9.5755 23.9676 9.47759 24.3041 9.23047Z" fill="#E3E2D9"/>
<path d="M8.8309 8.28117C8.79249 8.16519 8.72077 7.98334 8.80705 7.88672C8.92588 7.94979 8.96511 8.071 9.03041 8.19683L9.0777 8.27133C9.34564 8.66241 9.71062 8.53567 10.1563 8.69335C11.036 9.00445 11.9418 9.87718 12.4247 10.6477L12.3378 10.6957C12.0457 10.4395 11.7249 10.152 11.3974 9.94611C11.625 10.3789 11.8525 10.8189 11.9945 11.2885C12.2549 12.1493 12.2702 13.0821 12.0038 13.9453C11.8342 14.4946 11.4877 15.0739 10.9616 15.3479C9.8337 15.9052 8.76448 14.9028 8.32682 13.933C7.88124 12.9458 7.82713 11.784 8.2052 10.7672C8.44541 10.1319 8.73264 9.79749 9.22412 9.35241C8.10826 9.5376 7.39459 9.9733 6.69832 10.8954C6.41719 11.2678 6.28564 11.6776 6.38268 12.1393C6.50736 12.7325 6.72738 13.4233 6.95147 13.9854C6.3629 13.1245 6.18407 12.6294 5.87426 11.6257C5.68714 11.6182 5.51654 11.6159 5.33095 11.5875L5.22375 11.5973C5.11787 11.5417 5.10955 11.5882 5.00725 11.4973C5.04226 11.4081 5.07472 11.3353 5.11421 11.2486C5.1203 11.0215 4.93667 10.8575 4.78128 10.6929L4.81629 10.6253C4.90819 10.7144 4.93471 10.7781 5.02711 10.7769C5.13047 9.443 3.71127 9.2514 3.3864 11.0028L3.30469 10.9371C3.382 10.2612 3.73421 9.69111 4.44618 9.60841L4.53466 9.51349C4.65756 9.66911 4.79871 9.86391 4.97282 9.96012L5.07495 9.93L5.11134 9.98396C5.17761 10.0894 5.22041 10.1108 5.34032 10.1249C5.37287 10.1322 5.40551 10.1395 5.43806 10.1468C5.50904 9.68997 5.60771 9.60776 5.74567 9.20411C5.70984 9.16228 5.70302 9.15902 5.68104 9.10928L5.64229 9.09375L5.70952 9.01274C5.78206 8.96229 5.78596 8.96414 5.83649 8.89887L5.88999 8.94258C5.91577 9.01975 5.93303 9.04629 6.01175 9.08039C6.51715 9.2995 6.9155 9.32253 7.41639 9.13875C7.0996 8.76164 6.98265 8.53201 6.8175 8.07571C7.25801 8.47928 7.47182 8.6533 8.02922 8.8616C8.2744 8.73363 8.82999 8.6035 8.90894 8.49026L8.87224 8.34498C8.85841 8.32374 8.84464 8.30241 8.8309 8.28117Z" fill="#111111"/>
<path d="M5.74509 9.20312C5.90285 9.28835 6.85201 9.62799 6.72331 9.73847C6.37518 10.0374 5.9035 10.2674 5.4375 10.1458C5.50849 9.68896 5.60713 9.60675 5.74509 9.20312Z" fill="#E3E2D9"/>
<path d="M5.10156 10.4141C5.4124 10.5729 5.68331 10.6821 6.01855 10.7783C5.95296 10.9385 5.89199 11.0808 5.80507 11.2314C5.7182 11.2961 5.63324 11.3531 5.52801 11.3829C5.4676 11.4001 5.36837 11.427 5.30978 11.3893C5.25224 11.3521 5.23123 11.2319 5.22186 11.1728C5.21113 11.1046 5.19499 11.0366 5.18646 10.9681C5.16326 10.7831 5.13071 10.5984 5.10156 10.4141Z" fill="#E3E2D9"/>
<path d="M19.6757 19.2109L19.7191 19.2995C19.2803 19.5574 18.8231 19.7753 18.3653 19.997C18.1558 20.5451 18.0153 21.1098 17.8802 21.6798L17.7165 21.7151C17.2814 22.0435 17.0923 22.437 16.5489 22.7695C15.915 23.1575 15.2 23.369 14.4588 23.18C13.3563 22.8991 12.7652 22.0804 12.213 21.1588L12.0947 21.087C11.9889 20.7527 11.8862 20.4175 11.7866 20.0814C11.3985 19.815 10.9234 19.6106 10.5078 19.3835L10.5482 19.2823C11.5728 19.8788 12.728 20.328 13.8622 20.666C14.2231 20.7735 14.6057 20.8896 14.9857 20.8851C16.197 20.8708 18.5686 19.8116 19.6757 19.2109Z" fill="#111111"/>
<path d="M21.0105 8.33295C20.0724 8.07209 18.981 8.44976 18.3428 9.15042C18.2553 9.24663 18.0869 9.41608 17.9723 9.47503L17.9832 9.46689L17.9688 9.45411C17.9741 9.32386 18.5724 8.81717 18.6904 8.72163C19.0113 8.46212 19.5704 8.22373 19.9846 8.19596C20.1871 8.21102 20.4287 8.21939 20.6298 8.19531C20.8113 8.20053 20.8511 8.20346 21.0278 8.24772C21.0209 8.2772 21.0116 8.30365 21.0105 8.33295Z" fill="#111111"/>
<path d="M9.03125 8.1961C9.75687 8.04071 10.6994 8.28156 11.3227 8.68266L11.3378 8.69253L11.2461 8.74412C10.6189 8.38925 9.80352 8.13513 9.07854 8.27057L9.03125 8.1961Z" fill="#111111"/>
<path d="M11.3339 8.69141C11.4395 8.75205 12.2309 9.37197 12.0814 9.46394C12.1239 9.46892 11.3203 8.80007 11.2422 8.74303L11.3339 8.69141Z" fill="#575857"/>
<path d="M17.0312 4.19141C17.085 4.22275 17.1381 4.24889 17.1933 4.27719C17.2561 4.31489 17.6504 4.71626 17.7488 4.80734L17.726 4.8836C17.6142 4.81678 17.1162 4.31059 17.0312 4.19141Z" fill="#807E7E"/>
<path d="M8.83078 8.28125C8.84452 8.30249 8.85829 8.32382 8.87212 8.34506C8.75558 8.36387 8.31138 8.481 8.25905 8.45812C8.25603 8.45193 8.25302 8.44584 8.25 8.43963C8.37202 8.32968 8.6683 8.29956 8.83078 8.28125Z" fill="#302F31"/>
<path d="M21.4179 8.36719L21.4955 8.38564C21.4931 8.38518 21.8585 8.46592 21.756 8.50758C21.6871 8.53559 21.4609 8.44418 21.3828 8.40797L21.4179 8.36719Z" fill="#BDBBB7"/>
<path d="M19.9844 8.19979C20.2114 8.15177 20.4021 8.14257 20.6294 8.19914C20.4284 8.22322 20.1869 8.21484 19.9844 8.19979Z" fill="#575857"/>
<path d="M12.3359 10.6965L12.4229 10.6484C12.686 10.9907 12.5972 10.9806 12.3359 10.6965Z" fill="#111111"/>
<path d="M23.2323 13.5352L23.3418 13.5623C23.172 13.822 23.0828 13.83 23.2323 13.5352Z" fill="#111111"/>
<path d="M7.32812 14.8516C7.66015 14.9579 7.83215 15.0792 8.13769 15.203C9.0332 15.5658 9.94346 15.6773 10.8913 15.5864C10.9558 15.608 10.9914 15.6323 11.047 15.6734C10.7702 15.7401 10.5794 15.7744 10.381 15.9918C10.3462 16.03 10.2879 16.1196 10.233 16.1331C10.2168 16.1371 10.2006 16.1324 10.1897 16.1194C10.1647 16.0899 10.1633 16.0311 10.1628 15.996C10.1626 15.975 10.1732 15.8862 10.1479 15.8587C10.0971 15.8037 9.56482 15.8482 9.48112 15.8612C9.26544 15.8947 9.14945 15.993 9.02011 16.164C8.99503 16.1972 8.96192 16.2549 8.91836 16.2671C8.91561 16.264 8.912 16.2615 8.90989 16.2579C8.86806 16.188 8.88361 16.0128 8.90201 15.9357C8.90916 15.9055 8.93881 15.8277 8.9135 15.7938C8.89647 15.771 8.86032 15.7654 8.83437 15.7656C8.8123 15.7659 8.79024 15.7674 8.76827 15.7678C8.63512 15.7699 8.50275 15.773 8.36969 15.7783C8.27541 15.8509 8.15846 15.9587 8.05686 16.0134C8.00916 16.0262 8.00348 15.9817 8.00389 15.9553C8.00649 15.7881 8.14583 15.7418 8.22578 15.6307C8.20264 15.5441 7.91661 15.4539 7.81747 15.5056C7.67283 15.581 7.52869 15.6553 7.38112 15.7264C7.51436 15.5547 7.60161 15.4618 7.74985 15.3043C7.57208 15.1315 7.48791 15.0367 7.32812 14.8516Z" fill="#111111"/>
<path d="M19.1366 15.5869C19.7004 15.6447 20.357 15.6404 20.9144 15.5381C21.5513 15.4213 22.1116 15.1614 22.7025 14.9102C22.6846 14.9465 22.6675 14.9836 22.6495 15.0198C22.5908 15.1373 22.5162 15.2491 22.4501 15.3628L22.7428 15.6687C22.5176 15.5723 22.2031 15.4064 21.9525 15.5442C21.9457 15.548 21.9397 15.5533 21.9379 15.5612C21.9321 15.5875 21.9505 15.6128 21.9659 15.6323C21.9756 15.6446 21.9862 15.6562 21.9963 15.6683C22.0468 15.7291 22.1228 15.8726 22.1067 15.9504C22.103 15.9678 22.0906 15.9777 22.074 15.9833C22.0515 15.9908 22.0342 15.9868 22.0155 15.9736C21.9995 15.9624 21.9878 15.946 21.9736 15.9326C21.7664 15.7356 21.5106 15.7345 21.2389 15.7685C21.2177 15.7711 21.1911 15.7773 21.1772 15.7954C21.1512 15.8293 21.1669 15.8752 21.1769 15.9121C21.1821 15.9313 21.1884 15.9504 21.1938 15.9697C21.2209 16.0683 21.2388 16.1685 21.2584 16.2688C21.1356 16.1284 21.0168 15.9977 20.8821 15.8684C20.7418 15.8481 20.1074 15.7654 20.01 15.8572C19.977 15.8883 19.9778 15.9584 19.9717 15.9986C19.9681 16.0219 19.9624 16.0563 19.9452 16.0737C19.9391 16.08 19.9308 16.0827 19.9222 16.0822C19.8396 16.0775 19.6792 15.8664 19.6164 15.8041C19.5607 15.7916 19.5052 15.7811 19.4494 15.7697C19.3746 15.7543 19.2994 15.7343 19.2256 15.7156C19.1736 15.702 19.1219 15.6876 19.0703 15.6725L19.1366 15.5869Z" fill="#111111"/>
<path d="M14.9556 19.0373C14.8619 19.0537 14.7777 19.0717 14.6864 19.0972C14.6606 19.1045 14.6345 19.1104 14.6088 19.1176C14.4476 19.163 13.896 19.4423 13.7741 19.3868C13.7602 19.3805 13.7489 19.3674 13.7446 19.3528C13.7397 19.3365 13.7424 19.3238 13.7515 19.3099C13.7919 19.2483 13.9444 19.2297 14.0046 19.212C14.6117 19.034 14.8985 18.9476 15.5436 19.0335C15.6757 19.0511 16.1975 19.2012 16.2603 19.3159C16.2677 19.3298 16.2707 19.3412 16.2651 19.3563C16.2599 19.3706 16.2473 19.3806 16.2327 19.3835C16.1365 19.4031 15.9755 19.2918 15.8813 19.2549C15.6977 19.1829 15.5291 19.1228 15.3376 19.076C15.2746 19.0608 15.2109 19.0571 15.1465 19.0515C15.0695 19.0618 15.0308 19.0574 14.9556 19.0373Z" fill="#111111"/>
<path d="M14.9531 19.0359C14.9994 19.0167 15.0393 19.0021 15.0895 19.0195C15.1098 19.0265 15.126 19.0384 15.144 19.05C15.067 19.0604 15.0283 19.056 14.9531 19.0359Z" fill="#BDBBB7"/>
<path d="M10.8906 15.5853C11.0023 15.5625 11.485 15.4872 11.5816 15.5445C11.5881 15.5484 11.5901 15.5526 11.5893 15.5591C11.5891 15.5613 11.5883 15.5634 11.5877 15.5655L11.5606 15.557L11.5569 15.5828C11.4201 15.6335 11.1907 15.6561 11.0463 15.6723C10.9907 15.6312 10.9551 15.6069 10.8906 15.5853Z" fill="#302F31"/>
<path d="M19.0679 15.6745C18.9393 15.6536 18.8019 15.6201 18.673 15.6115C18.6251 15.6083 18.5605 15.613 18.5166 15.584C18.5067 15.5773 18.5009 15.572 18.5 15.5601C18.4996 15.5541 18.5029 15.5536 18.5075 15.5489L18.5289 15.5681L18.5477 15.5365C18.6733 15.5192 18.8131 15.5491 18.9385 15.5604C19.0084 15.5668 19.067 15.5682 19.1341 15.5889L19.0679 15.6745Z" fill="#302F31"/>
<path d="M14.789 16.2812C14.9017 16.4805 14.8476 16.5982 15.0065 16.8465L15.0421 16.9033C14.952 16.8443 14.852 16.7842 14.8029 16.6831C14.7293 16.5311 14.7401 16.4335 14.789 16.2812Z" fill="#111111"/>
<path d="M17.6579 4.50225C16.7385 3.35311 15.7781 2.46019 15.4375 0.851562C16.0231 2.01569 16.8246 3.05803 17.7992 3.92311C17.8261 3.9529 17.8267 3.95249 17.8592 3.97611L18.0846 4.1709C18.1127 4.2019 18.1091 4.19832 18.1443 4.22094C19.4743 5.30279 21.0059 6.10974 22.6502 6.59492C23.2292 6.76742 24.0133 6.93518 24.5571 7.12546C24.9515 8.02051 25.0644 8.98253 25.0645 9.95226C24.8415 10.0491 24.7669 10.0998 24.5235 10.1159C24.5035 10.1041 24.4916 10.1155 24.4623 10.123C24.4054 9.74114 24.465 9.62068 24.3055 9.22792L24.3411 9.18154C24.4064 9.11372 24.7591 8.86628 24.8548 8.79717L24.3132 9.04455C23.8373 7.80805 22.6667 6.57175 21.3286 6.31778C21.0031 6.25593 20.6375 6.26079 20.2997 6.20504L20.2564 6.19757C20.2074 6.2153 20.1758 6.22531 20.1257 6.23964C19.3824 5.78155 18.5583 5.62063 17.8352 4.98825L17.9451 4.97059C18.2289 5.17833 18.3305 5.27185 18.6606 5.44107C18.4069 5.23822 17.7924 4.74538 17.5815 4.5152L17.6579 4.50225Z" fill="#E3E2D9"/>
<path d="M17.6624 4.50391C17.89 4.65587 18.1259 4.91723 18.3541 5.09582C18.9407 5.55473 19.5819 5.89961 20.2609 6.19923C20.2118 6.21698 20.1803 6.22697 20.1301 6.2413C19.3869 5.78321 18.5628 5.62229 17.8396 4.98994L17.9495 4.97228C18.2334 5.17999 18.3349 5.27351 18.6651 5.44272C18.4114 5.2399 17.7968 4.74704 17.5859 4.51686L17.6624 4.50391Z" fill="#575857"/>
<path d="M24.3403 9.18359C24.4855 9.48362 24.5377 9.78526 24.5227 10.1179C24.5027 10.1061 24.4908 10.1175 24.4615 10.125C24.4046 9.74319 24.4642 9.62273 24.3047 9.23L24.3403 9.18359Z" fill="#575857"/>
<path d="M25.3207 9.91576C25.676 9.61989 26.0817 9.6534 26.3252 10.0426C27.5174 11.9485 25.5989 14.6794 23.7188 15.0809L24.0293 14.4272C25.2622 13.9194 26.2784 13.1078 25.7186 11.6185C25.4384 12.0751 25.002 12.4265 24.6043 12.7945C24.7087 12.4581 24.8566 12.0257 24.9178 11.6875C25.0044 11.6261 25.0515 11.6364 25.1605 11.5398L25.1384 11.4835L24.9968 11.4253C24.9571 11.419 24.9087 11.4129 24.8697 11.4025C24.928 11.0099 25.0341 10.708 25.0293 10.2757C25.0767 10.2037 25.0972 10.2043 25.1785 10.1779C25.1817 10.0673 25.2498 10.0069 25.3207 9.91576Z" fill="#EDEDEC"/>
<path d="M25.0267 10.2775C25.0741 10.2054 25.0947 10.2061 25.176 10.1797C25.1537 10.4095 25.1263 10.6079 25.107 10.8441C25.3225 10.6239 25.7073 10.1654 26.0373 10.4974C26.2128 10.674 26.4939 11.4006 26.4194 11.6277L26.4122 11.6345C26.3998 11.6296 26.3987 11.6308 26.3932 11.6128C26.2387 11.117 26.2663 10.8032 25.8388 10.4501C25.803 10.4591 25.7776 10.4571 25.7381 10.4585C25.2762 10.6607 25.1013 10.9625 24.9942 11.4271C24.9545 11.4208 24.9062 11.4147 24.8672 11.4043C24.9255 11.0116 25.0315 10.7097 25.0267 10.2775Z" fill="#111111"/>
<path d="M26.3886 8.61235C29.5272 8.01215 31.8891 11.6684 32.5752 14.2566L32.5175 14.3293C31.9339 12.1497 30.428 9.64568 28.2145 8.82602C27.5904 8.59495 27.0318 8.64036 26.3828 8.67186L26.3886 8.61235Z" fill="#09224F"/>
<path d="M3.52344 7.50804C4.17395 7.40295 4.84953 7.307 5.49134 7.16406C5.30633 7.65326 5.2015 7.93155 5.09812 8.44832C4.99467 8.96567 5.05915 9.50793 4.97498 9.96139C4.80087 9.86518 4.65972 9.67041 4.53682 9.51479C4.14954 8.87893 3.85546 8.17451 3.52344 7.50804Z" fill="#EDEDEC"/>
<path d="M24.6719 7.15234L25.1291 7.25793C25.2974 7.29578 25.4667 7.32924 25.6368 7.35821C25.7912 7.38549 25.9266 7.41534 26.0847 7.4379L26.5591 7.503C26.3476 8.0674 25.6711 9.4902 25.216 9.84818L25.1581 9.82026C25.2174 9.01615 24.9703 7.89402 24.6719 7.15234Z" fill="#EDEDEC"/>
<path d="M5.61127 7.13495C6.34773 6.95914 7.08282 6.8053 7.81489 6.60547C7.09161 7.12511 6.08857 8.02549 5.83015 8.89927C5.77958 8.96457 5.77568 8.9627 5.70317 9.01315C5.51336 8.93044 5.32053 8.85482 5.125 8.78639C5.22748 8.13969 5.32973 7.73434 5.61127 7.13495Z" fill="#E3E2D9"/>
<path d="M5.1343 8.86719C5.30727 8.94307 5.46746 9.00769 5.63765 9.09339L5.67641 9.10894C5.69838 9.15869 5.70521 9.16194 5.74104 9.20378C5.60305 9.6074 5.5044 9.68964 5.43342 10.1464C5.40087 10.1392 5.36823 10.1318 5.33568 10.1246C5.21577 10.1104 5.17297 10.089 5.1067 9.98363L5.07031 9.92967C5.11127 9.76549 5.10963 9.12881 5.1343 8.86719Z" fill="#EDEDEC"/>
<path d="M5.67666 9.10938C5.69863 9.15909 5.70546 9.16234 5.74129 9.20418C5.6033 9.60783 5.50466 9.69004 5.43367 10.1468C5.40112 10.1396 5.36849 10.1323 5.33594 10.125C5.41407 9.83362 5.66046 9.29878 5.67666 9.10938Z" fill="#302F31"/>
<path d="M17.1882 4.28082C16.611 3.51424 16.0037 2.98329 15.694 2.03431C15.664 1.94241 15.3788 1.41415 15.4597 1.37109C15.5198 1.38412 15.6189 1.68577 15.6543 1.7631C15.9924 2.50177 16.3973 3.20323 16.9423 3.8102C17.1207 4.01493 17.4266 4.32975 17.5764 4.51746C17.7873 4.74764 18.4018 5.2405 18.6556 5.44332C18.3254 5.27411 18.2238 5.18059 17.94 4.97287L17.8301 4.99051C17.7931 4.95454 17.7596 4.92149 17.7208 4.88724L17.7436 4.81098C17.6452 4.7199 17.2509 4.31853 17.1882 4.28082Z" fill="#E3E2D9"/>
<path d="M17.7494 4.80859C17.8167 4.86704 17.875 4.91547 17.9458 4.97049L17.8359 4.98815C17.7989 4.95218 17.7654 4.91913 17.7266 4.88485L17.7494 4.80859Z" fill="#302F31"/>
<path d="M14.9922 0.123396C15.0046 0.0625117 15.0006 0.0662547 15.029 0.0158706L15.0428 0.0078125C15.0609 0.0202661 15.0503 0.10858 15.0501 0.121766L14.9922 0.123396Z" fill="#807E7E"/>
<path d="M3.40841 7.52344C3.57936 7.68337 3.7283 8.1462 3.83225 8.37305C3.34656 8.26292 2.83116 8.23028 2.3375 8.30288C-0.00857823 8.64817 -1.60475 11.0908 -2.25917 13.1732C-2.34911 13.4592 -2.56384 14.6118 -2.68015 14.7681L-2.72761 14.7416C-2.96463 14.1448 -3.20442 13.5384 -3.33131 12.9068C-3.48514 12.1411 -2.97529 11.384 -2.56457 10.778C-1.14999 8.69042 1.05388 7.98325 3.40841 7.52344Z" fill="#1111FF"/>
<path d="M26.644 7.50391C27.0803 7.63724 27.5455 7.69152 27.9925 7.78284C28.5682 7.90056 29.1621 8.09591 29.7012 8.32797C31.7344 9.20289 32.7531 10.4793 33.5479 12.4917C33.4111 13.2036 33.2344 13.8858 32.9872 14.5679C32.9488 14.6314 32.942 14.6381 32.8738 14.6788C32.7885 14.5954 32.7947 14.4774 32.7742 14.3657C32.422 12.4486 31.2387 10.1026 29.5884 8.99125C28.5819 8.31323 27.446 8.16938 26.2734 8.39567C26.4104 8.10145 26.5397 7.81149 26.644 7.50391Z" fill="#1111FF"/>
<path d="M14.2866 1.93359L14.3519 1.95329C13.9533 3.0965 13.0808 4.17726 12.1952 4.99034C11.5325 5.59886 10.2637 6.35827 9.32783 6.21427C9.29912 6.21322 9.1841 6.21908 9.16406 6.18776C9.17335 6.14917 9.31066 6.09618 9.33574 6.0839C9.67353 6.0007 10.2086 5.70166 10.5178 5.53113C11.9914 4.71855 13.4595 3.4202 14.2866 1.93359Z" fill="#E3E2D9"/>
<path d="M9.32783 6.21243C9.29912 6.21138 9.1841 6.21724 9.16406 6.18589C9.17335 6.14733 9.31066 6.09434 9.33574 6.08203C9.45709 6.13764 9.46345 6.14285 9.58978 6.18044C9.55169 6.19462 9.3762 6.20648 9.32783 6.21243Z" fill="#E3E2D9"/>
<path d="M25.6572 11.8906C25.6669 11.8949 25.6919 11.9052 25.703 11.9115C25.7471 11.9369 25.7669 12.045 25.7741 12.0892C25.8165 12.3524 25.8244 12.5629 25.7281 12.8198C25.4726 13.5006 24.8826 13.9573 24.2409 14.2438C24.2077 14.2538 24.1658 14.2716 24.1303 14.2601C24.1162 14.2555 24.1051 14.2459 24.1026 14.2307C24.089 14.1494 24.2153 13.9143 24.2466 13.8269C24.3378 13.5721 24.4133 13.2689 24.5359 13.0307C24.684 12.7428 25.4015 12.1776 25.6572 11.8906Z" fill="#E3E2D9"/>
<path d="M14.4329 1.94044L14.568 1.87891C14.1571 3.24318 13.2557 4.45663 12.1072 5.28403C12.0096 5.35443 11.4948 5.70962 11.4011 5.70092L11.3984 5.69644C11.4165 5.66609 12.0875 5.19007 12.2053 5.08346C12.9643 4.39671 14.2083 2.93714 14.4329 1.94044Z" fill="#E3E2D9"/>
<path d="M14.4375 1.94031C14.5248 1.74968 14.6271 1.39871 14.6915 1.27734L14.7005 1.28597C14.7176 1.48783 14.649 1.69466 14.5726 1.87878L14.4375 1.94031Z" fill="#BDBBB7"/>
<path d="M14.2891 1.93438L14.3193 1.86259C14.3359 1.82214 14.4005 1.66716 14.4522 1.66797C14.4922 1.71648 14.3806 1.90662 14.3544 1.95408L14.2891 1.93438Z" fill="#9A9796"/>
<path d="M-3.80245 13.8281L-3.75136 13.8496C0.108448 22.9866 -10.0085 23.7788 -16.2225 23.599L-16.2344 23.5599L-16.027 23.5066C-15.7121 23.5078 -15.2575 23.2838 -14.9571 23.162C-13.537 22.5862 -12.1753 21.9693 -10.9804 20.9871C-9.34138 19.64 -8.16259 17.7822 -7.95789 15.646L-7.86654 15.6442C-8.13443 17.8829 -9.27218 19.7503 -11.0337 21.1457C-12.3403 22.1807 -13.8897 22.8808 -15.4464 23.4528C-15.2112 23.5801 -14.4114 23.4792 -14.0882 23.5135C-13.7388 23.5133 -12.2619 23.459 -11.961 23.3808C-10.6951 23.0518 -8.91209 22.1623 -7.83124 21.4386C-5.92861 20.1649 -4.52444 18.4351 -4.13081 16.1504C-3.99739 15.3759 -3.95084 14.5866 -3.80245 13.8281Z" fill="#111111"/>
<path d="M23.5 -0.5L26.5 7.5L30 8.5V-0.5H23.5Z" fill="#1111FF"/>
<path d="M0 9V0H5.5L3.5 7.5L0 9Z" fill="#1111FF"/>
</g>
</svg>
